<?xml version="1.0" encoding="utf-8"?>
<!-- Generator: Adobe Illustrator 25.2.0, SVG Export Plug-In . SVG Version: 6.00 Build 0)  -->
<svg version="1.1" id="Capa_1" xmlns="http://www.w3.org/2000/svg" xmlns:xlink="http://www.w3.org/1999/xlink" x="0px" y="0px"
	 viewBox="0 0 1764 1351" style="enable-background:new 0 0 1764 1351;" xml:space="preserve">
<style type="text/css">
	.st0{fill-rule:evenodd;clip-rule:evenodd;fill:#D15D64;}
	.st1{fill-rule:evenodd;clip-rule:evenodd;fill:#FCD05C;}
	.st2{fill:none;stroke:#7B63AB;stroke-width:1.097;stroke-linecap:round;stroke-linejoin:round;}
	.st3{fill-rule:evenodd;clip-rule:evenodd;fill:#E98333;}
	.st4{fill:none;stroke:#E98333;stroke-width:1.097;stroke-linecap:round;stroke-linejoin:round;}
	.st5{fill-rule:evenodd;clip-rule:evenodd;fill:#00A959;}
	.st6{fill-rule:evenodd;clip-rule:evenodd;fill:#7B63AB;}
	.st7{fill:none;stroke:#00A959;stroke-width:1.097;stroke-linecap:round;stroke-linejoin:round;}
	.st8{opacity:0.5;}
	.st9{fill-rule:evenodd;clip-rule:evenodd;fill:#4D595D;}
	.st10{fill:none;stroke:#DBE7F0;stroke-width:1.097;stroke-linecap:round;stroke-linejoin:round;}
	.st11{fill-rule:evenodd;clip-rule:evenodd;fill:#27363A;}
</style>
<g>
	<path class="st0" d="M774.8,788.1l2.8,1.5c0.2,0.1,0.3,0.3,0.2,0.5c0,0.1-0.1,0.1-0.2,0.2l-2.8,1.5c-0.1,0-0.1,0.1-0.2,0.2
		l-1.5,2.8c-0.1,0.2-0.3,0.3-0.5,0.2c-0.1,0-0.1-0.1-0.2-0.2l-1.5-2.8c0-0.1-0.1-0.1-0.2-0.2l-2.8-1.5c-0.2-0.1-0.3-0.3-0.2-0.5
		c0-0.1,0.1-0.1,0.2-0.2l2.8-1.5c0.1,0,0.1-0.1,0.2-0.2l1.5-2.8c0.1-0.2,0.3-0.3,0.5-0.2c0.1,0,0.1,0.1,0.2,0.2l1.5,2.8
		C774.7,788.1,774.7,788.1,774.8,788.1"/>
	<path class="st1" d="M239.1,166.7l1.4,0.7c0.2,0.1,0.3,0.3,0.2,0.5c0,0.1-0.1,0.1-0.2,0.2l-1.4,0.7c-0.1,0-0.1,0.1-0.2,0.2
		l-0.7,1.4c-0.1,0.2-0.3,0.3-0.5,0.2c-0.1,0-0.1-0.1-0.2-0.2l-0.7-1.4c0-0.1-0.1-0.1-0.2-0.2l-1.4-0.7c-0.2-0.1-0.3-0.3-0.2-0.5
		c0-0.1,0.1-0.1,0.2-0.2l1.4-0.7c0.1,0,0.1-0.1,0.2-0.2l0.7-1.4c0.1-0.2,0.3-0.3,0.5-0.2c0.1,0,0.1,0.1,0.2,0.2l0.7,1.4
		C238.9,166.6,239,166.7,239.1,166.7"/>
	<path class="st2" d="M409.5,108l-1.5,1.5 M413.5,104l-1.5,1.5 M409.5,108.2c0.7,0.7,1.9,0.7,2.6,0s0.7-1.9,0-2.6s-1.9-0.7-2.6,0
		C408.8,106.3,408.8,107.4,409.5,108.2L409.5,108.2z"/>
	<path class="st0" d="M962,138.1l2.8,1.5c0.2,0.1,0.3,0.3,0.2,0.5c0,0.1-0.1,0.1-0.2,0.2l-2.8,1.5c-0.1,0-0.1,0.1-0.2,0.2l-1.5,2.8
		c-0.1,0.2-0.3,0.3-0.5,0.2c-0.1,0-0.1-0.1-0.2-0.2l-1.5-2.8c0-0.1-0.1-0.1-0.2-0.2l-2.8-1.5c-0.2-0.1-0.3-0.3-0.2-0.5
		c0-0.1,0.1-0.1,0.2-0.2l2.8-1.5c0.1,0,0.1-0.1,0.2-0.2l1.5-2.8c0.1-0.2,0.3-0.3,0.5-0.2c0.1,0,0.1,0.1,0.2,0.2l1.5,2.8
		C961.9,138,961.9,138.1,962,138.1"/>
	<path class="st3" d="M1145,177.1l2.8,1.5c0.2,0.1,0.3,0.3,0.2,0.5c0,0.1-0.1,0.1-0.2,0.2l-2.8,1.5c-0.1,0-0.1,0.1-0.2,0.2l-1.5,2.8
		c-0.1,0.2-0.3,0.3-0.5,0.2c-0.1,0-0.1-0.1-0.2-0.2l-1.5-2.8c0-0.1-0.1-0.1-0.2-0.2l-2.8-1.5c-0.2-0.1-0.3-0.3-0.2-0.5
		c0-0.1,0.1-0.1,0.2-0.2l2.8-1.5c0.1,0,0.1-0.1,0.2-0.2l1.5-2.8c0.1-0.2,0.3-0.3,0.5-0.2c0.1,0,0.1,0.1,0.2,0.2l1.5,2.8
		C1144.9,177,1144.9,177.1,1145,177.1"/>
	<path class="st1" d="M1083.1,100.7l1.4,0.7c0.2,0.1,0.3,0.3,0.2,0.5c0,0.1-0.1,0.1-0.2,0.2l-1.4,0.7c-0.1,0-0.1,0.1-0.2,0.2
		l-0.7,1.4c-0.1,0.2-0.3,0.3-0.5,0.2c-0.1,0-0.1-0.1-0.2-0.2l-0.7-1.4c0-0.1-0.1-0.1-0.2-0.2l-1.4-0.7c-0.2-0.1-0.3-0.3-0.2-0.5
		c0-0.1,0.1-0.1,0.2-0.2l1.4-0.7c0.1,0,0.1-0.1,0.2-0.2l0.7-1.4c0.1-0.2,0.3-0.3,0.5-0.2c0.1,0,0.1,0.1,0.2,0.2l0.7,1.4
		C1082.9,100.6,1083,100.7,1083.1,100.7"/>
	<path class="st0" d="M1206.8,253.9c0,1.6-1.3,2.9-2.9,2.9s-2.9-1.3-2.9-2.9s1.3-2.9,2.9-2.9S1206.8,252.3,1206.8,253.9 M115,319.1
		l2.8,1.5c0.2,0.1,0.3,0.3,0.2,0.5c0,0.1-0.1,0.1-0.2,0.2l-2.8,1.5c-0.1,0-0.1,0.1-0.2,0.2l-1.5,2.8c-0.1,0.2-0.3,0.3-0.5,0.2
		c-0.1,0-0.1-0.1-0.2-0.2l-1.5-2.8c0-0.1-0.1-0.1-0.2-0.2l-2.8-1.5c-0.2-0.1-0.3-0.3-0.2-0.5c0-0.1,0.1-0.1,0.2-0.2l2.8-1.5
		c0.1,0,0.1-0.1,0.2-0.2l1.5-2.8c0.1-0.2,0.3-0.3,0.5-0.2c0.1,0,0.1,0.1,0.2,0.2l1.5,2.8C114.9,319,114.9,319.1,115,319.1"/>
	<path class="st1" d="M206.1,452.7l1.4,0.7c0.2,0.1,0.3,0.3,0.2,0.5c0,0.1-0.1,0.1-0.2,0.2l-1.4,0.7c-0.1,0-0.1,0.1-0.2,0.2
		l-0.7,1.4c-0.1,0.2-0.3,0.3-0.5,0.2c-0.1,0-0.1-0.1-0.2-0.2l-0.7-1.4c0-0.1-0.1-0.1-0.2-0.2l-1.4-0.7c-0.2-0.1-0.3-0.3-0.2-0.5
		c0-0.1,0.1-0.1,0.2-0.2l1.4-0.7c0.1,0,0.1-0.1,0.2-0.2l0.7-1.4c0.1-0.2,0.3-0.3,0.5-0.2c0.1,0,0.1,0.1,0.2,0.2l0.7,1.4
		C205.9,452.6,206,452.7,206.1,452.7"/>
	<path class="st0" d="M1662,527.1l2.8,1.5c0.2,0.1,0.3,0.3,0.2,0.5c0,0.1-0.1,0.1-0.2,0.2l-2.8,1.5c-0.1,0-0.1,0.1-0.2,0.2l-1.5,2.8
		c-0.1,0.2-0.3,0.3-0.5,0.2c-0.1,0-0.1-0.1-0.2-0.2l-1.5-2.8c0-0.1-0.1-0.1-0.2-0.2l-2.8-1.5c-0.2-0.1-0.3-0.3-0.2-0.5
		c0-0.1,0.1-0.1,0.2-0.2l2.8-1.5c0.1,0,0.1-0.1,0.2-0.2l1.5-2.8c0.1-0.2,0.3-0.3,0.5-0.2c0.1,0,0.1,0.1,0.2,0.2l1.5,2.8
		C1661.9,527,1661.9,527.1,1662,527.1 M1376.9,100.6l1.3,0.7c0.3,0.1,0.3,0.5,0,0.7l-1.3,0.7c-0.1,0-0.1,0.1-0.2,0.1l-0.7,1.3
		c-0.1,0.2-0.3,0.2-0.5,0.1c-0.1,0-0.1-0.1-0.1-0.1l-0.7-1.3c0-0.1-0.1-0.1-0.2-0.1l-1.3-0.7c-0.2-0.1-0.2-0.3-0.1-0.5
		c0-0.1,0.1-0.1,0.1-0.1l1.3-0.7c0.1,0,0.1-0.1,0.2-0.2l0.7-1.3c0.1-0.2,0.3-0.3,0.5-0.2c0.1,0,0.1,0.1,0.2,0.2L1376.9,100.6
		C1376.8,100.6,1376.8,100.6,1376.9,100.6"/>
	<path class="st1" d="M1634.1,382.7l1.4,0.7c0.2,0.1,0.3,0.3,0.2,0.5c0,0.1-0.1,0.1-0.2,0.2l-1.4,0.7c-0.1,0-0.1,0.1-0.2,0.2
		l-0.7,1.4c-0.1,0.2-0.3,0.3-0.5,0.2c-0.1,0-0.1-0.1-0.2-0.2l-0.7-1.4c0-0.1-0.1-0.1-0.2-0.2l-1.4-0.7c-0.2-0.1-0.3-0.3-0.2-0.5
		c0-0.1,0.1-0.1,0.2-0.2l1.4-0.7c0.1,0,0.1-0.1,0.2-0.2l0.7-1.4c0.1-0.2,0.3-0.3,0.5-0.2c0.1,0,0.1,0.1,0.2,0.2l0.7,1.4
		C1633.9,382.6,1634,382.7,1634.1,382.7"/>
	<path class="st4" d="M411,385.9l3.6-0.9l-0.9,3.6L411,385.9z"/>
	<path class="st5" d="M522.2,503l2,1.1l-2,1.1l-1.1,2l-1.1-2l-2-1.1l2-1.1l1.1-2L522.2,503z"/>
	<path class="st3" d="M531,40.1l2.8,1.5c0.2,0.1,0.3,0.3,0.2,0.5c0,0.1-0.1,0.1-0.2,0.2l-2.8,1.5c-0.1,0-0.1,0.1-0.2,0.2l-1.5,2.8
		c-0.1,0.2-0.3,0.3-0.5,0.2c-0.1,0-0.1-0.1-0.2-0.2l-1.5-2.8c0-0.1-0.1-0.1-0.2-0.2l-2.8-1.5c-0.2-0.1-0.3-0.3-0.2-0.5
		c0-0.1,0.1-0.1,0.2-0.2l2.8-1.5c0.1,0,0.1-0.1,0.2-0.2l1.5-2.8c0.1-0.2,0.3-0.3,0.5-0.2c0.1,0,0.1,0.1,0.2,0.2l1.5,2.8
		C530.9,40,530.9,40.1,531,40.1"/>
	<path class="st2" d="M653.9,202.3l-0.8-1.6c0-0.1-0.1-0.1-0.2-0.2l-1.6-0.8c-0.2-0.1-0.3-0.4-0.2-0.6c0-0.1,0.1-0.1,0.2-0.2
		l1.6-0.8c0.1,0,0.1-0.1,0.2-0.2l0.8-1.6c0.1-0.2,0.4-0.3,0.6-0.2c0.1,0,0.1,0.1,0.2,0.2l0.8,1.6c0,0.1,0.1,0.1,0.2,0.2l1.6,0.8
		c0.3,0.2,0.3,0.6,0,0.8l-1.6,0.8c-0.1,0-0.1,0.1-0.2,0.2l-0.8,1.6c-0.1,0.2-0.4,0.3-0.6,0.2C654,202.4,653.9,202.3,653.9,202.3
		L653.9,202.3z"/>
	<path class="st0" d="M594,161.1l2.8,1.5c0.2,0.1,0.3,0.3,0.2,0.5c0,0.1-0.1,0.1-0.2,0.2l-2.8,1.5c-0.1,0-0.1,0.1-0.2,0.2l-1.5,2.8
		c-0.1,0.2-0.3,0.3-0.5,0.2c-0.1,0-0.1-0.1-0.2-0.2l-1.5-2.8c0-0.1-0.1-0.1-0.2-0.2l-2.8-1.5c-0.2-0.1-0.3-0.3-0.2-0.5
		c0-0.1,0.1-0.1,0.2-0.2l2.8-1.5c0.1,0,0.1-0.1,0.2-0.2l1.5-2.8c0.1-0.2,0.3-0.3,0.5-0.2c0.1,0,0.1,0.1,0.2,0.2l1.5,2.8
		C593.9,161,593.9,161.1,594,161.1"/>
	<path class="st3" d="M178,127.1l2.8,1.5c0.2,0.1,0.3,0.3,0.2,0.5c0,0.1-0.1,0.1-0.2,0.2l-2.8,1.5c-0.1,0-0.1,0.1-0.2,0.2l-1.5,2.8
		c-0.1,0.2-0.3,0.3-0.5,0.2c-0.1,0-0.1-0.1-0.2-0.2l-1.5-2.8c0-0.1-0.1-0.1-0.2-0.2l-2.8-1.5c-0.2-0.1-0.3-0.3-0.2-0.5
		c0-0.1,0.1-0.1,0.2-0.2l2.8-1.5c0.1,0,0.1-0.1,0.2-0.2l1.5-2.8c0.1-0.2,0.3-0.3,0.5-0.2c0.1,0,0.1,0.1,0.2,0.2l1.5,2.8
		C177.9,127,177.9,127.1,178,127.1"/>
	<path class="st0" d="M299.8,56.9c0,1.6-1.3,2.9-2.9,2.9s-2.9-1.3-2.9-2.9s1.3-2.9,2.9-2.9S299.8,55.3,299.8,56.9"/>
	<path class="st2" d="M50.9,205.3l-0.8-1.6c0-0.1-0.1-0.1-0.2-0.2l-1.6-0.8c-0.2-0.1-0.3-0.4-0.2-0.6c0-0.1,0.1-0.1,0.2-0.2l1.6-0.8
		c0.1,0,0.1-0.1,0.2-0.2l0.8-1.6c0.1-0.2,0.4-0.3,0.6-0.2c0.1,0,0.1,0.1,0.2,0.2l0.8,1.6c0,0.1,0.1,0.1,0.2,0.2l1.6,0.8
		c0.3,0.2,0.3,0.6,0,0.8l-1.6,0.8c-0.1,0-0.1,0.1-0.2,0.2l-0.8,1.6c-0.1,0.2-0.4,0.3-0.6,0.2C51,205.4,50.9,205.3,50.9,205.3
		L50.9,205.3z"/>
	<path class="st0" d="M1691,261.1l2.8,1.5c0.2,0.1,0.3,0.3,0.2,0.5c0,0.1-0.1,0.1-0.2,0.2l-2.8,1.5c-0.1,0-0.1,0.1-0.2,0.2l-1.5,2.8
		c-0.1,0.2-0.3,0.3-0.5,0.2c-0.1,0-0.1-0.1-0.2-0.2l-1.5-2.8c0-0.1-0.1-0.1-0.2-0.2l-2.8-1.5c-0.2-0.1-0.3-0.3-0.2-0.5
		c0-0.1,0.1-0.1,0.2-0.2l2.8-1.5c0.1,0,0.1-0.1,0.2-0.2l1.5-2.8c0.1-0.2,0.3-0.3,0.5-0.2c0.1,0,0.1,0.1,0.2,0.2l1.5,2.8
		C1690.9,261,1690.9,261.1,1691,261.1"/>
	<path class="st6" d="M1637.1,223.7l1.4,0.7c0.2,0.1,0.3,0.3,0.2,0.5c0,0.1-0.1,0.1-0.2,0.2l-1.4,0.7c-0.1,0-0.1,0.1-0.2,0.2
		l-0.7,1.4c-0.1,0.2-0.3,0.3-0.5,0.2c-0.1,0-0.1-0.1-0.2-0.2l-0.7-1.4c0-0.1-0.1-0.1-0.2-0.2l-1.4-0.7c-0.2-0.1-0.3-0.3-0.2-0.5
		c0-0.1,0.1-0.1,0.2-0.2l1.4-0.7c0.1,0,0.1-0.1,0.2-0.2l0.7-1.4c0.1-0.2,0.3-0.3,0.5-0.2c0.1,0,0.1,0.1,0.2,0.2l0.7,1.4
		C1636.9,223.6,1637,223.7,1637.1,223.7"/>
	<path class="st0" d="M1611.9,48.6l1.3,0.7c0.3,0.1,0.3,0.5,0,0.7l-1.3,0.7c-0.1,0-0.1,0.1-0.2,0.2l-0.7,1.3
		c-0.1,0.2-0.3,0.2-0.5,0.1c-0.1,0-0.1-0.1-0.1-0.1l-0.7-1.3c0-0.1-0.1-0.1-0.2-0.2l-1.3-0.7c-0.2-0.1-0.3-0.3-0.2-0.5
		c0-0.1,0.1-0.1,0.2-0.2l1.3-0.7c0.1,0,0.1-0.1,0.2-0.2l0.7-1.3c0.1-0.2,0.3-0.3,0.5-0.2c0.1,0,0.1,0.1,0.2,0.2l0.7,1.3
		C1611.8,48.6,1611.8,48.6,1611.9,48.6"/>
	<path class="st1" d="M1663.1,116.7l1.4,0.7c0.2,0.1,0.3,0.3,0.2,0.5c0,0.1-0.1,0.1-0.2,0.2l-1.4,0.7c-0.1,0-0.1,0.1-0.2,0.2
		l-0.7,1.4c-0.1,0.2-0.3,0.3-0.5,0.2c-0.1,0-0.1-0.1-0.2-0.2l-0.7-1.4c0-0.1-0.1-0.1-0.2-0.2l-1.4-0.7c-0.2-0.1-0.3-0.3-0.2-0.5
		c0-0.1,0.1-0.1,0.2-0.2l1.4-0.7c0.1,0,0.1-0.1,0.2-0.2l0.7-1.4c0.1-0.2,0.3-0.3,0.5-0.2c0.1,0,0.1,0.1,0.2,0.2l0.7,1.4
		C1662.9,116.6,1663,116.7,1663.1,116.7"/>
	<g transform="translate(1580 434)">
		<path class="st6" d="M4.7,1.8L6,2.5C6.2,2.6,6.3,2.8,6.2,3c0,0.1-0.1,0.1-0.2,0.2L4.7,4C4.6,4,4.5,4.1,4.5,4.1L3.8,5.5
			C3.7,5.7,3.4,5.7,3.2,5.6C3.1,5.6,3.1,5.5,3,5.4L2.3,4.1L2.2,4L0.8,3.2C0.6,3.1,0.6,2.9,0.7,2.7c0-0.1,0.1-0.1,0.2-0.2l1.4-0.7
			c0.1,0,0.1-0.1,0.2-0.2l0.7-1.4c0-0.1,0.2-0.2,0.4-0.1c0.1,0,0.1,0.1,0.2,0.2l0.7,1.4C4.5,1.7,4.6,1.8,4.7,1.8"/>
	</g>
	<path class="st1" d="M1385,483.1l2.8,1.5c0.2,0.1,0.3,0.3,0.2,0.5c0,0.1-0.1,0.1-0.2,0.2l-2.8,1.5c-0.1,0-0.1,0.1-0.2,0.2l-1.5,2.8
		c-0.1,0.2-0.3,0.3-0.5,0.2c-0.1,0-0.1-0.1-0.2-0.2l-1.5-2.8c0-0.1-0.1-0.1-0.2-0.2l-2.8-1.5c-0.2-0.1-0.3-0.3-0.2-0.5
		c0-0.1,0.1-0.1,0.2-0.2l2.8-1.5c0.1,0,0.1-0.1,0.2-0.2l1.5-2.8c0.1-0.2,0.3-0.3,0.5-0.2c0.1,0,0.1,0.1,0.2,0.2l1.5,2.8
		C1384.9,483,1384.9,483.1,1385,483.1"/>
	<path class="st0" d="M1273.9,338.6l1.3,0.7c0.3,0.1,0.3,0.5,0,0.7l-1.3,0.7c-0.1,0-0.1,0.1-0.2,0.1l-0.7,1.3
		c-0.1,0.2-0.3,0.2-0.5,0.1c-0.1,0-0.1-0.1-0.1-0.1l-0.7-1.3c0-0.1-0.1-0.1-0.2-0.1l-1.3-0.7c-0.2-0.1-0.2-0.3-0.1-0.5
		c0-0.1,0.1-0.1,0.1-0.1l1.3-0.7c0.1,0,0.1-0.1,0.2-0.1l0.7-1.3c0.1-0.2,0.3-0.3,0.5-0.2c0.1,0,0.1,0.1,0.2,0.2L1273.9,338.6
		C1273.8,338.6,1273.8,338.6,1273.9,338.6"/>
	<path class="st1" d="M1494.1,406.7l1.4,0.7c0.2,0.1,0.3,0.3,0.2,0.5c0,0.1-0.1,0.1-0.2,0.2l-1.4,0.7c-0.1,0-0.1,0.1-0.2,0.2
		l-0.7,1.4c-0.1,0.2-0.3,0.3-0.5,0.2c-0.1,0-0.1-0.1-0.2-0.2l-0.7-1.4c0-0.1-0.1-0.1-0.2-0.2l-1.4-0.7c-0.2-0.1-0.3-0.3-0.2-0.5
		c0-0.1,0.1-0.1,0.2-0.2l1.4-0.7c0.1,0,0.1-0.1,0.2-0.2l0.7-1.4c0.1-0.2,0.3-0.3,0.5-0.2c0.1,0,0.1,0.1,0.2,0.2l0.7,1.4
		C1493.9,406.6,1494,406.7,1494.1,406.7"/>
	<path class="st7" d="M1712,450.5l1.8-0.5l1.8,0.5l-0.5-1.8l0.5-1.8l-1.8,0.5l-1.8-0.5l0.5,1.8L1712,450.5z"/>
	<g transform="translate(1598 622)">
		<path class="st0" d="M7.6,3.8l2.8,1.5c0.2,0.1,0.3,0.3,0.2,0.5c0,0.1-0.1,0.1-0.2,0.2L7.6,7.5c-0.1,0-0.1,0.1-0.2,0.2L6,10.4
			c-0.1,0.2-0.3,0.3-0.5,0.2c-0.1,0-0.1-0.1-0.2-0.2L3.8,7.7c0-0.1-0.1-0.1-0.2-0.2L0.9,6C0.7,5.9,0.6,5.7,0.7,5.5
			c0-0.1,0.1-0.1,0.2-0.2l2.8-1.5c0.1,0,0.1-0.1,0.2-0.2l1.5-2.8c0.1-0.2,0.3-0.3,0.5-0.2C6,0.6,6,0.7,6.1,0.8l1.5,2.8
			C7.5,3.7,7.6,3.8,7.6,3.8"/>
	</g>
	<g>
		<path class="st4" d="M70.5,513l-1.5,1.5 M74.5,509l-1.5,1.5 M70.5,513.2c0.7,0.7,1.9,0.7,2.6,0s0.7-1.9,0-2.6s-1.9-0.7-2.6,0
			C69.8,511.3,69.8,512.4,70.5,513.2z"/>
	</g>
	<path class="st1" d="M239.1,1200.9l1.4-0.7c0.2-0.1,0.3-0.3,0.2-0.5c0-0.1-0.1-0.1-0.2-0.2l-1.4-0.7c-0.1,0-0.1-0.1-0.2-0.2
		l-0.7-1.4c-0.1-0.2-0.3-0.3-0.5-0.2c-0.1,0-0.1,0.1-0.2,0.2l-0.7,1.4c0,0.1-0.1,0.1-0.2,0.2l-1.4,0.7c-0.2,0.1-0.3,0.3-0.2,0.5
		c0,0.1,0.1,0.1,0.2,0.2l1.4,0.7c0.1,0,0.1,0.1,0.2,0.2l0.7,1.4c0.1,0.3,0.5,0.3,0.7,0l0.7-1.4C238.9,1201,239,1200.9,239.1,1200.9"
		/>
	<path class="st0" d="M1206.8,1132.9c0-1.6-1.3-2.9-2.9-2.9s-2.9,1.3-2.9,2.9l0,0c0,1.6,1.3,2.9,2.9,2.9
		S1206.8,1134.5,1206.8,1132.9 M115,1035.8l2.8-1.5c0.2-0.1,0.3-0.3,0.2-0.5c0-0.1-0.1-0.1-0.2-0.2l-2.8-1.5c-0.1,0-0.1-0.1-0.2-0.2
		l-1.5-2.8c-0.1-0.2-0.3-0.3-0.5-0.2c-0.1,0-0.1,0.1-0.2,0.2l-1.5,2.8c0,0.1-0.1,0.1-0.2,0.2l-2.8,1.5c-0.2,0.1-0.3,0.3-0.2,0.5
		c0,0.1,0.1,0.1,0.2,0.2l2.8,1.5c0.1,0,0.1,0.1,0.2,0.2l1.5,2.8c0.2,0.3,0.5,0.3,0.7,0l1.5-2.8
		C114.9,1035.9,114.9,1035.9,115,1035.8"/>
	<path class="st1" d="M206.1,793.9l1.4-0.7c0.2-0.1,0.3-0.3,0.2-0.5c0-0.1-0.1-0.1-0.2-0.2l-1.4-0.7c-0.1,0-0.1-0.1-0.2-0.2
		l-0.7-1.4c-0.1-0.2-0.3-0.3-0.5-0.2c-0.1,0-0.1,0.1-0.2,0.2l-0.7,1.4c0,0.1-0.1,0.1-0.2,0.2l-1.4,0.7c-0.2,0.1-0.3,0.3-0.2,0.5
		c0,0.1,0.1,0.1,0.2,0.2l1.4,0.7c0.1,0,0.1,0.1,0.2,0.2l0.7,1.4c0.1,0.3,0.5,0.3,0.7,0l0.7-1.4C205.9,794,206,793.9,206.1,793.9"/>
	<path class="st0" d="M1456,1061.8l2.8-1.5c0.2-0.1,0.3-0.3,0.2-0.5c0-0.1-0.1-0.1-0.2-0.2l-2.6-1.4c-0.2-0.2-0.3-0.3-0.4-0.4
		l-1.4-2.6c-0.1-0.2-0.3-0.3-0.5-0.2c-0.1,0-0.1,0.1-0.2,0.2l-1.4,2.6c-0.2,0.2-0.3,0.3-0.5,0.5l-2.6,1.4c-0.2,0.1-0.3,0.3-0.2,0.5
		c0,0.1,0.1,0.1,0.2,0.2l2.6,1.4c0.2,0.2,0.3,0.3,0.4,0.4l0.8,1.4c0.4,0.8,1.5,0.8,2,0l0.9-1.6
		C1455.9,1061.9,1455.9,1061.9,1456,1061.8"/>
	<path class="st6" d="M1402.1,1085.9l1.4-0.7c0.2-0.1,0.3-0.3,0.2-0.5c0-0.1-0.1-0.1-0.2-0.2l-1.2-0.6c-0.2-0.2-0.3-0.3-0.4-0.4
		l-0.6-1.2c-0.1-0.2-0.3-0.3-0.5-0.2c-0.1,0-0.1,0.1-0.2,0.2l-0.6,1.2c-0.2,0.2-0.3,0.3-0.4,0.4l-1.2,0.6c-0.2,0.1-0.3,0.3-0.2,0.5
		c0,0.1,0.1,0.1,0.2,0.2l1.2,0.6c0.2,0.2,0.3,0.3,0.4,0.4l0,0c0.4,0.8,1.5,0.8,2,0l0.1-0.2C1401.9,1086,1402,1085.9,1402.1,1085.9"
		/>
	<path class="st4" d="M411,894.7l3.6,0.9l-0.9-3.6L411,894.7z"/>
	<path class="st5" d="M522.2,745.2l2-1.1l-2-1.1l-1.1-2l-1.1,2l-2,1.1l2,1.1l1.1,2L522.2,745.2z"/>
	<path class="st3" d="M178,1225.8l2.8-1.5c0.2-0.1,0.3-0.3,0.2-0.5c0-0.1-0.1-0.1-0.2-0.2l-2.8-1.5c-0.1,0-0.1-0.1-0.2-0.2l-1.5-2.8
		c-0.1-0.2-0.3-0.3-0.5-0.2c-0.1,0-0.1,0.1-0.2,0.2l-1.5,2.8c0,0.1-0.1,0.1-0.2,0.2l-2.8,1.5c-0.2,0.1-0.3,0.3-0.2,0.5
		c0,0.1,0.1,0.1,0.2,0.2l2.8,1.5c0.1,0,0.1,0.1,0.2,0.2l1.5,2.8c0.1,0.3,0.5,0.3,0.7,0l1.5-2.8
		C177.9,1225.9,177.9,1225.9,178,1225.8"/>
	<path class="st0" d="M299.8,1325.9c0-1.6-1.3-2.9-2.9-2.9s-2.9,1.3-2.9,2.9s1.3,2.9,2.9,2.9S299.8,1327.5,299.8,1325.9"/>
	<path class="st2" d="M50.9,1174.2l-0.8,1.6c0,0.1-0.1,0.1-0.2,0.2l-1.6,0.8c-0.2,0.1-0.3,0.4-0.2,0.6c0,0.1,0.1,0.1,0.2,0.2
		l1.6,0.8c0.1,0,0.1,0.1,0.2,0.2l0.8,1.6c0.2,0.3,0.6,0.3,0.8,0l0.8-1.6c0-0.1,0.1-0.1,0.2-0.2l1.6-0.8c0.2-0.1,0.3-0.4,0.2-0.6
		c0-0.1-0.1-0.1-0.2-0.2l-1.6-0.8c-0.1,0-0.1-0.1-0.2-0.2l-0.8-1.6c-0.1-0.2-0.4-0.3-0.6-0.2C51,1174.1,50.9,1174.2,50.9,1174.2
		L50.9,1174.2z"/>
	<path class="st0" d="M1691,1110.8l2.8-1.5c0.2-0.1,0.3-0.3,0.2-0.5c0-0.1-0.1-0.1-0.2-0.2l-2.8-1.5c-0.1,0-0.1-0.1-0.2-0.2
		l-1.5-2.8c-0.1-0.2-0.3-0.3-0.5-0.2c-0.1,0-0.1,0.1-0.2,0.2l-1.5,2.8c0,0.1-0.1,0.1-0.2,0.2l-2.8,1.5c-0.2,0.1-0.3,0.3-0.2,0.5
		c0,0.1,0.1,0.1,0.2,0.2l2.8,1.5c0.1,0,0.1,0.1,0.2,0.2l1.5,2.8c0.2,0.3,0.5,0.3,0.7,0l1.5-2.8
		C1690.9,1110.9,1690.9,1110.9,1691,1110.8"/>
	<path class="st6" d="M1637.1,1155.9l1.4-0.7c0.2-0.1,0.3-0.3,0.2-0.5c0-0.1-0.1-0.1-0.2-0.2l-1.4-0.7c-0.1,0-0.1-0.1-0.2-0.2
		l-0.7-1.4c-0.1-0.2-0.3-0.3-0.5-0.2c-0.1,0-0.1,0.1-0.2,0.2l-0.7,1.4c0,0.1-0.1,0.1-0.2,0.2l-1.4,0.7c-0.2,0.1-0.3,0.3-0.2,0.5
		c0,0.1,0.1,0.1,0.2,0.2l1.4,0.7c0.1,0,0.1,0.1,0.2,0.2l0.7,1.4c0.2,0.3,0.5,0.3,0.7,0l0.7-1.4
		C1636.9,1156,1637,1155.9,1637.1,1155.9"/>
	<path class="st0" d="M1611.9,1349.7l1.3-0.7c0.2-0.1,0.2-0.3,0.1-0.5c0-0.1-0.1-0.1-0.1-0.1l-1.3-0.7c-0.1,0-0.1-0.1-0.2-0.2
		l-0.7-1.3c-0.1-0.2-0.3-0.2-0.5-0.1c-0.1,0-0.1,0.1-0.1,0.1l-0.7,1.3c0,0.1-0.1,0.1-0.2,0.2l-1.3,0.7c-0.2,0.1-0.3,0.3-0.2,0.5
		c0,0.1,0.1,0.1,0.2,0.2l1.3,0.7c0.1,0,0.1,0.1,0.2,0.2l0.7,1.3c0.1,0.2,0.3,0.3,0.5,0.2c0.1,0,0.1-0.1,0.2-0.2l0.7-1.3
		C1611.8,1349.8,1611.8,1349.8,1611.9,1349.7"/>
	<path class="st1" d="M1663.1,1249.9l1.4-0.7c0.2-0.1,0.3-0.3,0.2-0.5c0-0.1-0.1-0.1-0.2-0.2l-1.4-0.7c-0.1,0-0.1-0.1-0.2-0.2
		l-0.7-1.4c-0.1-0.2-0.3-0.3-0.5-0.2c-0.1,0-0.1,0.1-0.2,0.2l-0.7,1.4c0,0.1-0.1,0.1-0.2,0.2l-1.4,0.7c-0.2,0.1-0.3,0.3-0.2,0.5
		c0,0.1,0.1,0.1,0.2,0.2l1.4,0.7c0.1,0,0.1,0.1,0.2,0.2l0.7,1.4c0.2,0.3,0.5,0.3,0.7,0l0.7-1.4
		C1662.9,1250,1663,1249.9,1663.1,1249.9"/>
	<g transform="matrix(1 0 0 -1 1587 986)">
		<path class="st6" d="M4.7,1.8L6,2.5C6.2,2.6,6.3,2.8,6.2,3c0,0.1-0.1,0.1-0.2,0.2L4.7,4C4.6,4,4.5,4.1,4.5,4.1L3.8,5.5
			C3.7,5.7,3.4,5.7,3.2,5.6C3.1,5.6,3.1,5.5,3,5.4L2.3,4.1L2.2,4L0.8,3.2C0.6,3.1,0.6,2.9,0.7,2.7c0-0.1,0.1-0.1,0.2-0.2l1.4-0.7
			c0.1,0,0.1-0.1,0.2-0.2l0.7-1.4c0-0.1,0.2-0.2,0.4-0.1c0.1,0,0.1,0.1,0.2,0.2l0.7,1.4C4.5,1.7,4.6,1.8,4.7,1.8"/>
	</g>
	<g>
		<path class="st2" d="M1164,915l2.8-2.8 M1156,923l2.8-2.8 M1161.6,912.9c0-1-5.2,4.2-4.5,4.5c2.2,0.8,3.8,2.4,4.6,4.6
			c0.2,0.7,5.5-4.5,4.5-4.5C1167.1,917.4,1161.6,911.9,1161.6,912.9L1161.6,912.9z"/>
	</g>
	<path class="st1" d="M1385,770.8l2.8-1.5c0.2-0.1,0.3-0.3,0.2-0.5c0-0.1-0.1-0.1-0.2-0.2l-2.8-1.5c-0.1,0-0.1-0.1-0.2-0.2l-1.5-2.8
		c-0.1-0.2-0.3-0.3-0.5-0.2c-0.1,0-0.1,0.1-0.2,0.2l-1.5,2.8c0,0.1-0.1,0.1-0.2,0.2l-2.8,1.5c-0.2,0.1-0.3,0.3-0.2,0.5
		c0,0.1,0.1,0.1,0.2,0.2l2.8,1.5c0.1,0,0.1,0.1,0.2,0.2l1.5,2.8c0.2,0.3,0.5,0.3,0.7,0l1.5-2.8
		C1384.9,770.9,1384.9,770.9,1385,770.8"/>
	<path class="st0" d="M1273.9,962.7l1.3-0.7c0.2-0.1,0.2-0.3,0.1-0.5c0-0.1-0.1-0.1-0.1-0.1l-1.1-0.6c-0.1-0.1-0.3-0.3-0.4-0.4
		l-0.6-1.1c-0.1-0.2-0.3-0.2-0.5-0.1c-0.1,0-0.1,0.1-0.1,0.1l-0.6,1.1c-0.2,0.2-0.3,0.3-0.4,0.4l-1.1,0.6c-0.2,0.1-0.3,0.3-0.2,0.5
		c0,0.1,0.1,0.1,0.2,0.2l1.1,0.6c0.1,0.1,0.3,0.3,0.4,0.4l0.6,1.1c0.1,0.2,0.3,0.3,0.5,0.2c0.1,0,0.1-0.1,0.2-0.2l0.7-1.3
		C1273.8,962.8,1273.8,962.8,1273.9,962.7"/>
	<path class="st0" d="M558,1244.7c0-1.6-1.3-2.9-2.9-2.9c-1.6,0-2.9,1.3-2.9,2.9l0,0c0,1.6,1.3,2.9,2.9,2.9S558,1246.3,558,1244.7"
		/>
	<path class="st6" d="M753.3,1197.7l1.4-0.7c0.2-0.1,0.3-0.3,0.2-0.5c0-0.1-0.1-0.1-0.2-0.2l-1.2-0.6c-0.2-0.2-0.3-0.3-0.4-0.4
		l-0.6-1.2c-0.1-0.2-0.3-0.3-0.5-0.2c-0.1,0-0.1,0.1-0.2,0.2l-0.6,1.2c-0.2,0.2-0.3,0.3-0.4,0.4l-1.2,0.6c-0.2,0.1-0.3,0.3-0.2,0.5
		c0,0.1,0.1,0.1,0.2,0.2l1.2,0.6c0.2,0.2,0.3,0.3,0.4,0.4l0,0c0.4,0.8,1.5,0.8,2,0l0.1-0.2C753.1,1197.8,753.2,1197.7,753.3,1197.7"
		/>
	<g>
		<path class="st2" d="M515.2,1026.8l2.8-2.8 M507.2,1034.8l2.8-2.8 M512.8,1024.7c0-1-5.2,4.2-4.5,4.5c2.2,0.8,3.8,2.4,4.6,4.6
			c0.2,0.7,5.5-4.5,4.5-4.5C518.3,1029.2,512.8,1023.7,512.8,1024.7L512.8,1024.7z"/>
	</g>
	<path class="st0" d="M625.1,1074.5l1.3-0.7c0.2-0.1,0.2-0.3,0.1-0.5c0-0.1-0.1-0.1-0.1-0.1l-1.1-0.6c-0.1-0.1-0.3-0.3-0.4-0.4
		l-0.6-1.1c-0.1-0.2-0.3-0.2-0.5-0.1c-0.1,0-0.1,0.1-0.1,0.1l-0.6,1.1c-0.2,0.2-0.3,0.3-0.4,0.4l-1.1,0.6c-0.2,0.1-0.3,0.3-0.2,0.5
		c0,0.1,0.1,0.1,0.2,0.2l1.1,0.6c0.1,0.1,0.3,0.3,0.4,0.4l0.6,1.1c0.1,0.2,0.3,0.3,0.5,0.2c0.1,0,0.1-0.1,0.2-0.2l0.7-1.3
		C625,1074.6,625,1074.6,625.1,1074.5"/>
	<path class="st1" d="M1494.1,873.9l1.4-0.7c0.2-0.1,0.3-0.3,0.2-0.5c0-0.1-0.1-0.1-0.2-0.2l-1.4-0.7c-0.1-0.1-0.1-0.1-0.2-0.2
		l-0.7-1.4c-0.1-0.2-0.3-0.3-0.5-0.2c-0.1,0-0.1,0.1-0.2,0.2l-0.6,1.2c-0.2,0.2-0.3,0.3-0.5,0.4l-1.2,0.6c-0.2,0.1-0.3,0.3-0.2,0.5
		c0,0.1,0.1,0.1,0.2,0.2l1.2,0.6c0.2,0.2,0.3,0.3,0.4,0.4l0,0c0.4,0.8,1.5,0.8,2,0l0.1-0.2C1493.9,874,1494,873.9,1494.1,873.9"/>
	<path class="st0" d="M797.6,663.2c0-1.6-1.3-2.9-2.9-2.9c-1.6,0-2.9,1.3-2.9,2.9l0,0c0,1.6,1.3,2.9,2.9,2.9
		C796.3,666.2,797.6,664.9,797.6,663.2"/>
	<path class="st0" d="M1046.8,592.2l2.8-1.5c0.2-0.1,0.3-0.3,0.2-0.5c0-0.1-0.1-0.1-0.2-0.2l-2.6-1.4c-0.2-0.2-0.3-0.3-0.4-0.4
		l-1.4-2.6c-0.1-0.2-0.3-0.3-0.5-0.2c-0.1,0-0.1,0.1-0.2,0.2l-1.4,2.6c-0.2,0.2-0.3,0.3-0.5,0.5l-2.6,1.4c-0.2,0.1-0.3,0.3-0.2,0.5
		c0,0.1,0.1,0.1,0.2,0.2l2.6,1.4c0.2,0.2,0.3,0.3,0.4,0.4l0.8,1.4c0.4,0.8,1.5,0.8,2,0l0.9-1.6
		C1046.7,592.3,1046.7,592.2,1046.8,592.2"/>
	<path class="st6" d="M992.9,616.2l1.4-0.7c0.2-0.1,0.3-0.3,0.2-0.5c0-0.1-0.1-0.1-0.2-0.2l-1.2-0.6c-0.2-0.2-0.3-0.3-0.4-0.4
		l-0.6-1.2c-0.1-0.2-0.3-0.3-0.5-0.2c-0.1,0-0.1,0.1-0.2,0.2l-0.6,1.2c-0.2,0.2-0.3,0.3-0.4,0.4l-1.2,0.6c-0.2,0.1-0.3,0.3-0.2,0.5
		c0,0.1,0.1,0.1,0.2,0.2l1.2,0.6c0.2,0.2,0.3,0.3,0.4,0.4l0,0c0.4,0.8,1.5,0.8,2,0L992.9,616.2C992.8,616.3,992.8,616.3,992.9,616.2
		"/>
	<g>
		<path class="st2" d="M754.8,445.3l2.8-2.8 M746.8,453.3l2.8-2.8 M752.4,443.2c0-1-5.2,4.2-4.5,4.5c2.2,0.8,3.8,2.4,4.6,4.6
			c0.2,0.7,5.5-4.5,4.5-4.5C757.9,447.7,752.4,442.3,752.4,443.2L752.4,443.2z"/>
	</g>
	<path class="st0" d="M864.7,493.1l1.3-0.7c0.2-0.1,0.2-0.3,0.1-0.5c0-0.1-0.1-0.1-0.1-0.1l-1.1-0.6c-0.1-0.1-0.3-0.3-0.4-0.4
		l-0.6-1.1c-0.1-0.2-0.3-0.2-0.5-0.1c-0.1,0-0.1,0.1-0.1,0.1l-0.6,1.1c-0.2,0.2-0.3,0.3-0.4,0.4l-1.1,0.6c-0.2,0.1-0.3,0.3-0.2,0.5
		c0,0.1,0.1,0.1,0.2,0.2l1.1,0.6c0.1,0.1,0.3,0.3,0.4,0.4l0.6,1.1c0.1,0.2,0.3,0.3,0.5,0.2c0.1,0,0.1-0.1,0.2-0.2l0.7-1.3
		C864.6,493.2,864.6,493.1,864.7,493.1"/>
	<path class="st1" d="M1084.9,404.2l1.4-0.7c0.2-0.1,0.3-0.3,0.2-0.5c0-0.1-0.1-0.1-0.2-0.2l-1.4-0.7c-0.1-0.1-0.1-0.1-0.2-0.2
		l-0.7-1.4c-0.1-0.2-0.3-0.3-0.5-0.2c-0.1,0-0.1,0.1-0.2,0.2l-0.6,1.2c-0.2,0.2-0.3,0.3-0.4,0.4l-1.2,0.6c-0.2,0.1-0.3,0.3-0.2,0.5
		c0,0.1,0.1,0.1,0.2,0.2l1.2,0.6c0.2,0.2,0.3,0.3,0.4,0.4l0,0c0.4,0.8,1.5,0.8,2,0L1084.9,404.2
		C1084.8,404.3,1084.8,404.3,1084.9,404.2"/>
	<path class="st7" d="M1712,812l1.8,0.5l1.8-0.5l-0.5,1.8l0.5,1.8l-1.8-0.5l-1.8,0.5l0.5-1.8L1712,812z"/>
	<path class="st0" d="M1009.6,961.4l2.8,1.5c0.2,0.1,0.3,0.3,0.2,0.5c0,0.1-0.1,0.1-0.2,0.2l-2.8,1.5c-0.1,0-0.1,0.1-0.2,0.2
		l-1.5,2.8c-0.1,0.2-0.3,0.3-0.5,0.2c-0.1,0-0.1-0.1-0.2-0.2l-1.5-2.8c0-0.1-0.1-0.1-0.2-0.2l-2.8-1.5c-0.2-0.1-0.3-0.3-0.2-0.5
		c0-0.1,0.1-0.1,0.2-0.2l2.8-1.5c0.1,0,0.1-0.1,0.2-0.2l1.5-2.8c0.1-0.2,0.3-0.3,0.5-0.2c0.1,0,0.1,0.1,0.2,0.2l1.5,2.8
		C1009.5,961.3,1009.6,961.3,1009.6,961.4"/>
	<g transform="translate(1598 622)">
		<path class="st0" d="M-644.7,438l2.8,1.5c0.2,0.1,0.3,0.3,0.2,0.5c0,0.1-0.1,0.1-0.2,0.2l-2.8,1.5c-0.1,0-0.1,0.1-0.2,0.2
			l-1.5,2.8c-0.1,0.2-0.3,0.3-0.5,0.2c-0.1,0-0.1-0.1-0.2-0.2l-1.5-2.8c0-0.1-0.1-0.1-0.2-0.2l-2.8-1.5c-0.2-0.1-0.3-0.3-0.2-0.5
			c0-0.1,0.1-0.1,0.2-0.2l2.8-1.5c0.1,0,0.1-0.1,0.2-0.2l1.5-2.8c0.1-0.2,0.3-0.3,0.5-0.2c0.1,0,0.1,0.1,0.2,0.2l1.5,2.8
			C-644.8,438-644.8,438-644.7,438"/>
	</g>
	<path class="st7" d="M1059.6,1246.2l1.8,0.5l1.8-0.5l-0.5,1.8l0.5,1.8l-1.8-0.5l-1.8,0.5l0.5-1.8L1059.6,1246.2z"/>
	<g>
		<path class="st4" d="M70.5,721l-1.5-1.5 M74.5,725l-1.5-1.5 M70.5,720.8c0.7-0.7,1.9-0.7,2.6,0s0.7,1.9,0,2.6s-1.9,0.7-2.6,0
			C69.8,722.7,69.8,721.6,70.5,720.8L70.5,720.8z"/>
	</g>
	<g class="st8">
		<path class="st9" d="M378.6,216.9c0-4.5-1.6-8.7-4.2-11.9c-2.1-2.2-4.4-0.8-5.1,9.5c-0.8,12.4-7.3,4.1-12.5,10
			c-5.2,5.8-17.3-4.8-14.2,1.4c3.2,6,9.6,10.1,16.9,10.1C370,236.1,378.6,227.5,378.6,216.9"/>
		<path class="st10" d="M359.4,197.8c10.6,0,19.1,8.6,19.1,19.1c0,10.6-8.6,19.1-19.1,19.1s-19.1-8.6-19.1-19.1
			C340.3,206.4,348.9,197.8,359.4,197.8L359.4,197.8z"/>
		<path class="st10" d="M359.4,197.8c10.6,0,19.1,8.6,19.1,19.1c0,10.6-8.6,19.1-19.1,19.1s-19.1-8.6-19.1-19.1
			C340.3,206.4,348.9,197.8,359.4,197.8L359.4,197.8z"/>
		<path class="st10" d="M341.8,209.5c3.7,1.6,8.1,3.1,11.8,3.1c7.6,0,9.3-4.6,18.3-4.8c1.6,0,3.1,0,4.4-0.1 M352,234.6
			c1.4-3.5,4.2-8.5,9.7-11.3c6.5-3.3,11.2-0.6,16.1-0.8"/>
		<path class="st10" d="M343.3,227.3c2.9-0.4,7.8-1.7,11.8-5.7c6.2-6.2,7.9-6.4,11.7-6.4c3.1,0,7.7,3.2,11.6,3.4 M351.7,199.5
			c4,0.6,8.8,1.9,11.9,4.4c2.4,2,6.5,1.8,10.6,1 M347.8,201.8c1.5,0.3,2.8,0.7,3.7,0.9c2.9,0.9,5.5,1.3,4.7,3.3
			c-0.9,2.6-5.3,1.1-8.2,0.2c-1-0.3-2.1-0.9-3.3-1.5 M340.4,214.7c3.8,0.5,9.1,1.8,9.7,4.8c0.4,2-3.9,3.2-8.7,3.8 M354.5,235.4
			c3.3-3.5,11.5-10.6,21.1-8.3l0,0"/>
	</g>
	<g class="st8">
		<path class="st9" d="M1460.6,919.9c-40.5-52.8-44,39.2-122.5,23.7c22,27.9,56.1,45.8,94.4,45.8c66.4,0,120.2-53.8,120.2-120.2
			c0-39.4-18.9-74.3-48.2-96.2l-5,2C1521.5,802.3,1480.1,945.3,1460.6,919.9"/>
		<path class="st10" d="M1312.3,867.4c0.1-7.8,1-15.8,2.7-23.6 M1357.4,962.8c-3-2.4-5.8-4.9-8.5-7.5 M1472.4,982.2
			c-9.9,3.5-20.2,5.7-30.7,6.5 M1545.8,830.2c1.5,4.5,2.8,9.1,3.8,13.8 M1511.4,778.8c3.6,3.2,7,6.5,10.2,10.1 M1412.2,750.8
			c7.6-1.3,15.3-1.9,23-1.7"/>
		<path class="st11" d="M1357.7,964.9c4.5,4,10,7.7,16.6,10.8c0.3,0.1,0.5,0.3,0.7,0.6c0.7,1.1,3.4,4,4.3,4.9
			c0.2,0.2,0.4,0.3,0.6,0.4l8.8,3.2c0.3,0.1,0.5,0.2,0.7,0.5l5.7,6.5c0.4,0.4,0.9,0.6,1.5,0.5l6.1-1.1c0.2,0,0.4,0,0.6,0l4.3,1
			c0.2,0,0.4,0.1,0.7,0l5-0.9c0.2,0,0.4,0,0.6,0l9.5,2c0.3,0.1,0.7,0,1-0.1l5-2.3c0.2-0.1,0.5-0.2,0.7-0.2h7.9
			c0.3,0,0.6-0.1,0.9-0.2l5-3.1c1.1-0.7,0.6-2.3-0.7-2.2l-3.9,0.1c-0.3,0-0.5,0-0.8-0.2l-9.5-4.5c-0.3-0.2-0.7-0.2-1.1-0.1l-5.4,1.3
			c-0.4,0.1-0.8,0-1.1-0.1l-15.3-7.6c-0.2-0.1-0.3-0.1-0.5-0.1l-12.3-1.8c-0.3,0-0.5-0.1-0.7-0.3l-9.9-7.4c-0.3-0.2-0.7-0.3-1-0.3
			l-11.7,0.3c-0.1,0-0.2,0-0.4,0l-10.6-2.2C1357.5,961.7,1356.5,963.8,1357.7,964.9"/>
		<path class="st10" d="M1357.7,964.9c4.5,4,10,7.7,16.6,10.8c0.3,0.1,0.5,0.3,0.7,0.6c0.7,1.1,3.4,4,4.3,4.9
			c0.2,0.2,0.4,0.3,0.6,0.4l8.8,3.2c0.3,0.1,0.5,0.2,0.7,0.5l5.7,6.5c0.4,0.4,0.9,0.6,1.5,0.5l6.1-1.1c0.2,0,0.4,0,0.6,0l4.3,1
			c0.2,0,0.4,0.1,0.7,0l5-0.9c0.2,0,0.4,0,0.6,0l9.5,2c0.3,0.1,0.7,0,1-0.1l5-2.3c0.2-0.1,0.5-0.2,0.7-0.2h7.9
			c0.3,0,0.6-0.1,0.9-0.2l5-3.1c1.1-0.7,0.6-2.3-0.7-2.2l-3.9,0.1c-0.3,0-0.5,0-0.8-0.2l-9.5-4.5c-0.3-0.2-0.7-0.2-1.1-0.1l-5.4,1.3
			c-0.4,0.1-0.8,0-1.1-0.1l-15.3-7.6c-0.2-0.1-0.3-0.1-0.5-0.1l-12.3-1.8c-0.3,0-0.5-0.1-0.7-0.3l-9.9-7.4c-0.3-0.2-0.7-0.3-1-0.3
			l-11.7,0.3c-0.1,0-0.2,0-0.4,0l-10.6-2.2C1357.5,961.7,1356.5,963.8,1357.7,964.9L1357.7,964.9z"/>
		<path class="st11" d="M1524.2,789.2c8.5,9.6,19.7,26.2,22.9,39.2c0.1,0.5,0,1.1-0.4,1.5c-3.7,3.9-21.4,20.3-23.3,22
			c-0.1,0.1-0.2,0.2-0.4,0.3l-10.5,5.1c-0.1,0.1-0.3,0.1-0.4,0.1l-5.5,1.1c-0.4,0.1-0.8,0.3-1,0.7l-6.5,9.3
			c-0.5,0.7-1.4,0.9-2.1,0.5l-24.4-13.6c-0.4-0.2-0.7-0.7-0.8-1.2l-3.1-20c-0.1-0.7,0.2-1.3,0.8-1.7l15.9-8.9c0.4-0.2,0.7-0.6,0.8-1
			l6.7-27c0.2-0.6,0.6-1.1,1.3-1.2l28.7-5.7C1523.3,788.5,1523.9,788.7,1524.2,789.2"/>
		<path class="st10" d="M1524.2,789.2c8.5,9.6,19.7,26.2,22.9,39.2c0.1,0.5,0,1.1-0.4,1.5c-3.7,3.9-21.4,20.3-23.3,22
			c-0.1,0.1-0.2,0.2-0.4,0.3l-10.5,5.1c-0.1,0.1-0.3,0.1-0.4,0.1l-5.5,1.1c-0.4,0.1-0.8,0.3-1,0.7l-6.5,9.3
			c-0.5,0.7-1.4,0.9-2.1,0.5l-24.4-13.6c-0.4-0.2-0.7-0.7-0.8-1.2l-3.1-20c-0.1-0.7,0.2-1.3,0.8-1.7l15.9-8.9c0.4-0.2,0.7-0.6,0.8-1
			l6.7-27c0.2-0.6,0.6-1.1,1.3-1.2l28.7-5.7C1523.3,788.5,1523.9,788.7,1524.2,789.2L1524.2,789.2z"/>
		<path class="st11" d="M1312.3,894.9c-1.9-8.6-2.7-17.4-2.6-26.2c0-1.4,1.7-2.1,2.7-1.2l7.9,6.6c0.3,0.3,0.8,0.4,1.2,0.4l12.9-1.5
			c0.4,0,0.7,0,1.1,0.2l15.9,9.9c0.2,0.1,0.4,0.2,0.5,0.2l16.2,3.2c0.4,0.1,0.8,0,1.1-0.2l14-7.5c0.7-0.4,1.5-0.2,2,0.4l10.2,11.4
			c0.2,0.3,0.4,0.6,0.4,1l1.9,27.8c0,0.5-0.2,1-0.5,1.3l-13.4,12.2c-0.2,0.2-0.4,0.5-0.5,0.8l-3.9,13.9c-0.2,0.6-0.7,1.1-1.3,1.2
			l-16.9,2.5c-0.2,0-0.3,0-0.5,0l-7.2-1c-0.7-0.1-1.3,0.2-1.6,0.8c-0.5,0.9-1.4,2.3-2.1,3.5c-0.5,0.8-1.5,1-2.3,0.6
			c-0.1-0.1-0.2-0.1-0.3-0.2c-7.5-6.7-13.8-14.1-19-22h21.6c7,0-3.5-3.7-11-3.2c-1,0.1-2,0.1-3,0.2c-0.2-2.4-2.8-6.5-8.6-6.6
			c0.4-0.6,0.8-1.2,1.1-1.9C1339.7,902.6,1324.9,892.8,1312.3,894.9L1312.3,894.9z"/>
		<path class="st10" d="M1328.3,932.9c5.2,7.9,11.5,15.3,19,22c0.7,0.6,1.7,0.6,2.3-0.1c0.1-0.1,0.1-0.2,0.2-0.3
			c0.7-1.2,1.5-2.6,2.1-3.5c0.3-0.6,1-0.9,1.6-0.8l7.2,1c0.2,0,0.3,0,0.5,0l16.9-2.5c0.6-0.1,1.2-0.6,1.3-1.2l3.9-13.9
			c0.1-0.3,0.2-0.6,0.5-0.8l13.4-12.2c0.4-0.3,0.6-0.8,0.5-1.3l-1.9-27.8c0-0.4-0.2-0.7-0.4-1l-10.2-11.4c-0.5-0.6-1.3-0.7-2-0.4
			l-14,7.5c-0.3,0.2-0.7,0.2-1.1,0.2l-16.2-3.2c-0.2,0-0.4-0.1-0.5-0.2l-15.9-9.9c-0.3-0.2-0.7-0.3-1.1-0.2l-12.9,1.5
			c-0.4,0.1-0.9-0.1-1.2-0.4l-7.9-6.6c-1.1-0.9-2.7-0.2-2.7,1.2c-0.1,8.8,0.7,17.6,2.6,26.2 M1410.3,749.4
			c-40.3,6.9-84.5,37.8-96.6,92.7c-0.3,1.2,0.8,2.2,2,2c1.2-0.3,2.6-0.6,3.5-0.8c0.6-0.1,1.2,0,1.6,0.5l9,10c0.4,0.4,1,0.6,1.6,0.5
			l23.5-5c0.4-0.1,0.8-0.3,1-0.6l14.7-20.4c0.4-0.6,0.4-1.5-0.1-2l-7.5-8.4c-0.3-0.4-0.5-0.9-0.4-1.4l2.4-13.2
			c0.1-0.5,0.4-1,0.9-1.2l14.2-6.5c0.8-0.4,1.8,0,2.2,0.8c0.1,0.2,0.1,0.4,0.1,0.6l0.7,11.1c0,0.4,0.2,0.8,0.5,1.1l19.4,18.4
			c0.4,0.4,1,0.5,1.5,0.4l16.5-4.4c0.2,0,0.3-0.1,0.5-0.1c2.1,0.1,17.4,0.8,17.6,0.3s1.7-16,2-18.7c0-0.3,0.1-0.5,0.3-0.8l9.5-13.7
			c0.4-0.6,0.4-1.4-0.1-2l-16.1-19.3c-0.2-0.2-0.4-0.4-0.7-0.5l-19.9-7.7c-0.6-0.2-0.9-0.7-1-1.3c-0.3-1.9-0.8-6.3-1-8.9
			C1412,750,1411.2,749.3,1410.3,749.4C1410.4,749.3,1410.4,749.4,1410.3,749.4L1410.3,749.4z"/>
		<path class="st11" d="M1548.8,844.8l-4.9,11.1c-0.2,0.4-0.6,0.8-1,0.9l-12.2,3.6c-0.3,0.1-0.5,0.2-0.7,0.5l-10.9,11.8
			c-0.3,0.4-0.5,0.8-0.4,1.3l2.1,16.6c0.1,0.5-0.1,0.9-0.4,1.3l-9.2,10.6c-0.3,0.4-0.8,0.6-1.3,0.6l-16.4-0.6
			c-0.9,0-1.6,0.7-1.7,1.5l-1.1,19.2c0,0.2-0.1,0.4-0.1,0.6l-7.6,17.1c-0.2,0.4-0.2,0.9,0,1.3l6,14.8c0.2,0.5,0.2,1-0.1,1.4
			l-8.3,14.7c-0.1,0.1-0.2,0.3-0.3,0.4c-0.8,0.8-4.7,4.5-7.5,7.4c-1.1,1.2,0,3.1,1.6,2.7c26.2-6.3,91.2-51.3,77.6-138.5
			C1551.7,843.6,1549.5,843.3,1548.8,844.8"/>
		<path class="st10" d="M1548.8,844.8l-4.9,11.1c-0.2,0.4-0.6,0.8-1,0.9l-12.2,3.6c-0.3,0.1-0.5,0.2-0.7,0.5l-10.9,11.8
			c-0.3,0.4-0.5,0.8-0.4,1.3l2.1,16.6c0.1,0.5-0.1,0.9-0.4,1.3l-9.2,10.6c-0.3,0.4-0.8,0.6-1.3,0.6l-16.4-0.6
			c-0.9,0-1.6,0.7-1.7,1.5l-1.1,19.2c0,0.2-0.1,0.4-0.1,0.6l-7.6,17.1c-0.2,0.4-0.2,0.9,0,1.3l6,14.8c0.2,0.5,0.2,1-0.1,1.4
			l-8.3,14.7c-0.1,0.1-0.2,0.3-0.3,0.4c-0.8,0.8-4.7,4.5-7.5,7.4c-1.1,1.2,0,3.1,1.6,2.7c26.2-6.3,91.2-51.3,77.6-138.5
			C1551.7,843.6,1549.5,843.3,1548.8,844.8L1548.8,844.8z M1436.8,747.4l14.2-0.8c0.4,0,0.8,0.1,1.1,0.3l2.2,1.7
			c0.4,0.3,0.9,0.4,1.4,0.3l8.7-2.1c0.4-0.1,0.9,0,1.3,0.2l3.6,2.3c0.3,0.2,0.8,0.3,1.2,0.2l5.5-1c0.3-0.1,0.6,0,0.9,0.1l1.9,0.8
			c0.4,0.1,0.7,0.4,0.8,0.8l1.8,3.6c0.2,0.5,0.7,0.8,1.2,0.9l3.8,0.7c0.4,0.1,0.7,0.3,1,0.6l2.8,3.6c0.1,0.1,0.2,0.2,0.4,0.3
			l6.4,4.3c0.2,0.1,0.4,0.3,0.5,0.5c0.4,0.8,1.5,2.7,1.8,2.9s9.9,8.1,12.6,10.3c0.3,0.2,0.2,0.7-0.2,0.8c-0.9,0.2-2.2,0.5-2.9,0.6
			c-0.2,0-0.5,0-0.7-0.1l-8.7-4.1c-0.1-0.1-0.2-0.1-0.3-0.1l-9.5-2.2c-0.2,0-0.4-0.1-0.6,0l-9.6,1.3c-0.4,0.1-0.8,0-1.1-0.3
			l-14.6-10c-0.2-0.1-0.3-0.2-0.5-0.2l-16.9-4.4c-0.3-0.1-0.7-0.3-0.9-0.6l-4.4-5.7c-0.2-0.2-0.4-0.4-0.6-0.5l-4.2-1.9
			C1434.6,749.8,1435.1,747.5,1436.8,747.4L1436.8,747.4z"/>
		<path class="st10" d="M1545.3,822.4h69.6c11.2,0,6.4-4.1-7.7-2.9c-0.7,0.1-1.4,0.1-2.1,0.2c-1.6-1.7-5.5-3.8-9.3-2.6
			c-0.6-4.6-8.2-10.1-15.4-5.3c-0.5-7.1-7.7-13.9-15.2-7.8c2.2-11.5-0.8-24.2-18.3-22.6c-10.8,0.9-15.7,6.5-17.2,13.2 M1338.9,929.7
			c-1,0.1-2,0.1-3,0.2c-0.2-2.4-2.8-6.5-8.6-6.6c0.4-0.6,0.8-1.2,1.1-1.9c16.6-27.6-23-35.7-29.2-15.5c-1.3,4.3-1.8,8.5-1.8,12.2
			c-2-1.3-4.7-2.1-8.3-2.1c-10,0-13.3,8.8-12.3,13c-1.8-1.1-3.8-2.2-8.3-1.8c-8.6,0.8-17.2,5.7-4.1,5.7h85.6
			C1356.9,932.9,1346.4,929.2,1338.9,929.7L1338.9,929.7z"/>
	</g>
</g>
</svg>
